ply
format ascii 1.0
element vertex 369
property float x
property float y
property float z
element face 742
property list uchar int vertex_index
end_header
0.5 28.5 29.5
0.5 28.5 31.5
0.5 28.5 33.5
0.5 30.5 28.5
0.5 30.5 34.5
0.5 32.5 28.5
0.5 32.5 34.5
0.5 34.5 29.5
0.5 34.5 31.5
0.5 34.5 33.5
2.5 27.5 30.5
2.5 27.5 32.5
2.5 28.5 28.5
2.5 28.5 34.5
2.5 30.5 27.5
2.5 30.5 34.5
2.5 32.5 27.5
2.5 32.5 34.5
2.5 34.5 28.5
2.5 34.5 30.5
2.5 34.5 32.5
2.5 34.5 34.5
4.5 27.5 30.5
4.5 27.5 32.5
4.5 28.5 28.5
4.5 28.5 34.5
4.5 30.5 27.5
4.5 30.5 34.5
4.5 32.5 27.5
4.5 32.5 34.5
4.5 34.5 28.5
4.5 34.5 30.5
4.5 34.5 32.5
4.5 34.5 34.5
6.5 27.5 30.5
6.5 27.5 32.5
6.5 28.5 28.5
6.5 28.5 34.5
6.5 30.5 27.5
6.5 30.5 34.5
6.5 32.5 27.5
6.5 32.5 34.5
6.5 34.5 28.5
6.5 34.5 30.5
6.5 34.5 32.5
6.5 34.5 34.5
8.5 27.5 30.5
8.5 27.5 32.5
8.5 28.5 28.5
8.5 28.5 34.5
8.5 30.5 27.5
8.5 30.5 34.5
8.5 32.5 27.5
8.5 32.5 34.5
8.5 34.5 28.5
8.5 34.5 30.5
8.5 34.5 32.5
8.5 34.5 34.5
10.5 27.5 30.5
10.5 27.5 32.5
10.5 28.5 28.5
10.5 28.5 34.5
10.5 30.5 27.5
10.5 30.5 34.5
10.5 32.5 27.5
10.5 32.5 34.5
10.5 34.5 28.5
10.5 34.5 30.5
10.5 34.5 32.5
10.5 34.5 34.5
12.5 27.5 30.5
12.5 27.5 32.5
12.5 28.5 28.5
12.5 28.5 34.5
12.5 30.5 27.5
12.5 30.5 34.5
12.5 32.5 27.5
12.5 32.5 34.5
12.5 34.5 28.5
12.5 34.5 30.5
12.5 34.5 32.5
12.5 34.5 34.5
14.5 27.5 29.5
14.5 27.5 31.5
14.5 27.5 33.5
14.5 29.5 27.5
14.5 29.5 34.5
14.5 31.5 27.5
14.5 31.5 35.5
14.5 33.5 27.5
14.5 33.5 34.5
14.5 34.5 29.5
14.5 34.5 32.5
16.5 27.5 29.5
16.5 27.5 31.5
16.5 27.5 33.5
16.5 29.5 27.5
16.5 29.5 34.5
16.5 31.5 27.5
16.5 31.5 35.5
16.5 33.5 27.5
16.5 33.5 34.5
16.5 34.5 29.5
16.5 35.5 31.5
16.5 35.5 33.5
17.5 29.5 29.5
18.5 27.5 30.5
18.5 27.5 32.5
18.5 29.5 33.5
18.5 30.5 27.5
18.5 30.5 35.5
18.5 32.5 27.5
18.5 32.5 34.5
18.5 33.5 29.5
18.5 34.5 31.5
18.5 34.5 33.5
19.5 28.5 28.5
19.5 35.5 29.5
20.5 27.5 30.5
20.5 27.5 32.5
20.5 28.5 34.5
20.5 30.5 27.5
20.5 30.5 35.5
20.5 32.5 27.5
20.5 32.5 35.5
20.5 34.5 33.5
20.5 35.5 31.5
21.5 28.5 28.5
21.5 34.5 28.5
22.5 27.5 30.5
22.5 27.5 32.5
22.5 28.5 34.5
22.5 30.5 27.5
22.5 30.5 34.5
22.5 32.5 27.5
22.5 32.5 34.5
22.5 34.5 30.5
22.5 34.5 32.5
22.5 34.5 34.5
23.5 28.5 28.5
23.5 34.5 28.5
24.5 27.5 30.5
24.5 27.5 32.5
24.5 28.5 34.5
24.5 30.5 27.5
24.5 30.5 34.5
24.5 32.5 27.5
24.5 32.5 34.5
24.5 34.5 30.5
24.5 34.5 32.5
24.5 34.5 34.5
25.5 28.5 28.5
25.5 34.5 28.5
26.5 27.5 30.5
26.5 27.5 32.5
26.5 28.5 34.5
26.5 30.5 27.5
26.5 30.5 35.5
26.5 32.5 27.5
26.5 32.5 35.5
26.5 34.5 33.5
26.5 35.5 30.5
27.5 27.5 28.5
27.5 34.5 27.5
27.5 34.5 35.5
27.5 36.5 32.5
28.5 26.5 30.5
28.5 26.5 32.5
28.5 27.5 34.5
28.5 29.5 27.5
28.5 29.5 35.5
28.5 31.5 26.5
28.5 31.5 36.5
28.5 35.5 29.5
29.5 27.5 28.5
29.5 33.5 27.5
29.5 33.5 34.5
29.5 35.5 31.5
29.5 35.5 33.5
30.5 27.5 30.5
30.5 27.5 32.5
30.5 28.5 34.5
30.5 29.5 27.5
30.5 29.5 29.5
30.5 30.5 34.5
30.5 31.5 27.5
30.5 33.5 29.5
30.5 35.5 29.5
31.5 32.5 34.5
31.5 34.5 31.5
31.5 34.5 33.5
32.5 27.5 29.5
32.5 27.5 31.5
32.5 27.5 33.5
32.5 29.5 27.5
32.5 29.5 29.5
32.5 29.5 33.5
32.5 29.5 35.5
32.5 31.5 27.5
32.5 33.5 27.5
32.5 33.5 29.5
32.5 35.5 29.5
33.5 31.5 35.5
33.5 33.5 34.5
33.5 35.5 31.5
33.5 35.5 33.5
34.5 27.5 29.5
34.5 27.5 31.5
34.5 27.5 33.5
34.5 29.5 27.5
34.5 29.5 34.5
34.5 31.5 27.5
34.5 33.5 27.5
34.5 34.5 29.5
35.5 31.5 35.5
35.5 33.5 34.5
35.5 35.5 31.5
35.5 35.5 33.5
36.5 27.5 29.5
36.5 27.5 31.5
36.5 27.5 33.5
36.5 29.5 27.5
36.5 29.5 34.5
36.5 31.5 27.5
36.5 33.5 27.5
36.5 34.5 29.5
37.5 31.5 35.5
37.5 33.5 34.5
37.5 35.5 31.5
37.5 35.5 33.5
38.5 27.5 28.5
38.5 27.5 30.5
38.5 27.5 32.5
38.5 27.5 34.5
38.5 29.5 27.5
38.5 29.5 35.5
38.5 31.5 27.5
38.5 33.5 27.5
38.5 35.5 28.5
39.5 31.5 35.5
39.5 33.5 34.5
39.5 35.5 30.5
39.5 35.5 32.5
39.5 35.5 34.5
40.5 27.5 29.5
40.5 27.5 31.5
40.5 27.5 33.5
40.5 29.5 27.5
40.5 29.5 29.5
40.5 29.5 32.5
40.5 29.5 34.5
40.5 31.5 27.5
40.5 33.5 27.5
40.5 33.5 29.5
40.5 33.5 32.5
41.5 31.5 34.5
41.5 33.5 34.5
42.5 28.5 30.5
42.5 28.5 32.5
42.5 30.5 28.5
42.5 32.5 28.5
42.5 33.5 30.5
42.5 33.5 32.5
43.5 29.5 34.5
43.5 31.5 34.5
43.5 33.5 34.5
43.5 35.5 30.5
43.5 35.5 32.5
44.5 27.5 29.5
44.5 27.5 31.5
44.5 27.5 33.5
44.5 29.5 27.5
44.5 29.5 29.5
44.5 29.5 32.5
44.5 31.5 27.5
44.5 33.5 27.5
44.5 33.5 29.5
45.5 29.5 34.5
45.5 30.5 36.5
45.5 32.5 35.5
45.5 33.5 33.5
45.5 35.5 29.5
45.5 35.5 31.5
45.5 35.5 33.5
46.5 26.5 30.5
46.5 26.5 32.5
46.5 28.5 28.5
46.5 30.5 26.5
46.5 32.5 26.5
46.5 33.5 28.5
47.5 28.5 33.5
47.5 29.5 35.5
47.5 31.5 36.5
47.5 33.5 34.5
47.5 35.5 29.5
47.5 35.5 32.5
48.5 26.5 29.5
48.5 26.5 31.5
48.5 26.5 33.5
48.5 28.5 28.5
48.5 29.5 26.5
48.5 31.5 25.5
48.5 32.5 27.5
48.5 33.5 29.5
48.5 33.5 36.5
48.5 37.5 30.5
48.5 37.5 32.5
49.5 24.5 30.5
49.5 24.5 32.5
49.5 27.5 35.5
49.5 28.5 30.5
49.5 28.5 32.5
49.5 29.5 34.5
49.5 29.5 36.5
49.5 30.5 28.5
49.5 30.5 30.5
49.5 30.5 32.5
49.5 30.5 38.5
49.5 31.5 34.5
49.5 31.5 36.5
49.5 32.5 31.5
49.5 32.5 38.5
49.5 33.5 25.5
49.5 33.5 33.5
49.5 34.5 27.5
49.5 34.5 31.5
49.5 35.5 29.5
49.5 35.5 33.5
49.5 35.5 35.5
50.5 25.5 28.5
50.5 25.5 34.5
50.5 27.5 26.5
50.5 27.5 28.5
50.5 29.5 25.5
50.5 31.5 24.5
50.5 32.5 27.5
50.5 33.5 35.5
50.5 34.5 37.5
50.5 36.5 27.5
50.5 37.5 29.5
50.5 37.5 32.5
50.5 37.5 34.5
51.5 24.5 30.5
51.5 24.5 32.5
51.5 27.5 30.5
51.5 27.5 32.5
51.5 27.5 34.5
51.5 27.5 36.5
51.5 29.5 27.5
51.5 29.5 34.5
51.5 29.5 36.5
51.5 30.5 38.5
51.5 31.5 35.5
51.5 32.5 37.5
51.5 33.5 25.5
51.5 34.5 27.5
51.5 34.5 29.5
51.5 34.5 33.5
51.5 35.5 31.5
51.5 35.5 35.5
52.5 26.5 28.5
52.5 29.5 25.5
52.5 31.5 24.5
52.5 31.5 26.5
52.5 33.5 35.5
52.5 36.5 28.5
52.5 36.5 33.5
52.5 37.5 30.5
52.5 38.5 32.5
3 34 23 22
3 312 346 309
3 349 346 312
3 23 34 35
3 43 32 44
3 31 32 43
3 84 71 83
3 58 47 46
3 58 59 47
3 79 91 78
3 13 4 2
3 207 192 206
3 145 157 147
3 157 159 147
3 151 153 141
3 129 119 118
3 119 129 130
3 330 309 298
3 309 330 346
3 175 187 186
3 215 227 217
3 177 165 178
3 165 160 178
3 111 109 98
3 58 70 59
3 172 157 170
3 73 84 86
3 84 73 71
3 28 16 18
3 30 28 18
3 216 217 228
3 79 68 80
3 67 68 79
3 350 352 351
3 351 352 353
3 155 170 157
3 169 162 156
3 118 127 129
3 59 61 49
3 47 59 49
3 61 51 49
3 61 63 51
3 273 263 258
3 122 131 133
3 120 131 122
3 81 92 80
3 39 49 51
3 39 37 49
3 301 333 300
3 358 365 367
3 365 358 356
3 365 339 367
3 17 27 29
3 10 22 11
3 23 11 22
3 37 47 49
3 47 37 35
3 22 24 34
3 24 36 34
3 143 145 133
3 324 326 338
3 22 12 24
3 22 10 12
3 12 14 24
3 124 135 138
3 138 125 124
3 158 175 171
3 175 158 163
3 3 14 12
3 355 324 338
3 121 116 109
3 282 281 266
3 81 90 92
3 85 82 72
3 60 72 70
3 58 60 70
3 72 60 62
3 246 245 249
3 249 245 258
3 24 26 36
3 36 26 38
3 169 174 162
3 14 26 24
3 290 312 291
3 195 194 209
3 206 195 209
3 260 276 275
3 275 274 260
3 159 160 150
3 150 147 159
3 31 30 19
3 191 206 192
3 206 191 195
3 71 59 70
3 158 171 156
3 156 146 158
3 146 156 144
3 245 232 231
3 318 323 336
3 323 304 336
3 304 323 293
3 119 107 118
3 118 107 106
3 168 154 167
3 164 178 160
3 314 299 300
3 300 348 314
3 229 242 228
3 120 130 131
3 120 119 130
3 269 284 285
3 125 138 137
3 280 279 293
3 289 294 303
3 151 144 156
3 64 54 66
3 54 64 52
3 274 275 288
3 240 243 227
3 227 243 229
3 143 142 154
3 204 201 189
3 190 178 176
3 176 178 164
3 116 106 105
3 106 116 118
3 125 114 115
3 114 125 126
3 89 100 98
3 320 318 316
3 323 318 320
3 303 294 326
3 102 103 114
3 94 106 107
3 168 167 180
3 153 166 154
3 43 54 42
3 54 52 42
3 52 40 42
3 144 151 139
3 166 174 179
3 174 183 179
3 180 192 193
3 202 188 197
3 215 217 205
3 215 205 203
3 217 216 205
3 204 205 216
3 154 168 155
3 168 170 155
3 131 142 143
3 131 130 142
3 139 151 141
3 298 290 285
3 285 290 270
3 84 83 94
3 132 127 121
3 302 322 301
3 322 354 334
3 287 274 288
3 87 89 98
3 351 321 317
3 142 153 154
3 142 141 153
3 190 205 204
3 189 190 204
3 325 323 320
3 199 213 212
3 200 213 199
3 291 292 278
3 292 279 278
3 269 285 270
3 130 129 141
3 362 334 354
3 35 46 47
3 35 34 46
3 46 36 48
3 36 46 34
3 36 38 48
3 253 251 252
3 251 253 260
3 20 19 8
3 156 162 151
3 162 153 151
3 0 12 10
3 219 220 208
3 208 207 219
3 220 210 208
3 220 222 210
3 46 48 58
3 58 48 60
3 65 77 69
3 69 77 81
3 133 135 124
3 135 133 145
3 135 145 147
3 72 82 70
3 78 67 79
3 85 87 96
3 96 87 98
3 29 41 33
3 128 134 123
3 162 166 153
3 190 189 178
3 116 105 109
3 105 96 109
3 12 0 3
3 13 15 4
3 48 50 60
3 152 158 146
3 129 127 139
3 163 161 173
3 161 163 152
3 20 8 9
3 299 310 296
3 126 136 128
3 67 55 56
3 139 141 129
3 160 165 161
3 122 133 124
3 68 69 80
3 80 69 81
3 269 268 284
3 112 110 124
3 124 110 122
3 280 267 265
3 265 267 262
3 91 100 89
3 166 162 174
3 100 91 102
3 74 64 76
3 74 62 64
3 289 303 302
3 114 117 113
3 117 114 126
3 57 56 45
3 56 44 45
3 45 53 57
3 20 9 21
3 137 149 148
3 136 137 148
3 50 62 60
3 1 0 10
3 226 227 215
3 232 219 231
3 38 50 48
3 107 95 94
3 251 259 248
3 295 327 306
3 127 116 121
3 144 139 132
3 318 312 316
3 127 132 139
3 68 56 57
3 69 68 57
3 335 363 355
3 293 292 304
3 127 118 116
3 344 343 342
3 344 345 343
3 192 207 193
3 298 297 308
3 297 298 285
3 351 317 350
3 313 350 317
3 147 138 135
3 147 150 138
3 15 6 4
3 17 6 15
3 149 160 161
3 29 27 39
3 41 29 39
3 70 82 83
3 357 358 366
3 94 83 93
3 93 83 82
3 74 85 72
3 85 74 87
3 159 157 172
3 92 79 80
3 145 155 157
3 75 77 65
3 74 72 62
3 11 1 10
3 96 93 85
3 96 105 93
3 105 106 93
3 93 106 94
3 107 119 120
3 312 318 352
3 349 312 352
3 85 93 82
3 70 83 71
3 111 113 123
3 86 95 97
3 84 95 86
3 21 29 33
3 29 21 17
3 155 145 143
3 95 84 94
3 13 11 23
3 13 23 25
3 190 176 188
3 346 345 311
3 141 142 130
3 292 291 313
3 313 319 292
3 154 166 167
3 228 225 216
3 81 77 90
3 159 164 160
3 237 236 224
3 108 107 120
3 196 181 193
3 181 180 193
3 207 208 193
3 122 110 120
3 59 71 61
3 155 143 154
3 2 11 13
3 11 2 1
3 25 27 15
3 347 350 313
3 334 301 322
3 52 64 62
3 62 50 52
3 71 73 61
3 73 63 61
3 63 73 75
3 169 156 171
3 67 78 66
3 172 164 159
3 176 164 172
3 325 358 327
3 66 55 67
3 55 66 54
3 287 288 301
3 301 288 302
3 78 76 66
3 277 264 263
3 263 273 277
3 39 27 37
3 25 37 27
3 317 319 313
3 132 121 123
3 132 123 134
3 51 53 41
3 41 39 51
3 53 45 41
3 101 90 99
3 88 99 90
3 206 218 207
3 219 207 218
3 109 96 98
3 131 143 133
3 76 64 66
3 108 97 95
3 108 95 107
3 110 108 120
3 108 110 97
3 326 339 338
3 124 125 112
3 25 15 13
3 17 21 6
3 73 86 75
3 152 163 158
3 21 33 32
3 32 20 21
3 35 37 25
3 23 35 25
3 78 91 89
3 19 30 18
3 294 289 281
3 40 28 30
3 42 40 30
3 366 358 367
3 260 259 251
3 44 55 43
3 44 56 55
3 187 175 173
3 173 175 163
3 319 321 304
3 68 67 56
3 104 103 92
3 28 26 16
3 16 26 14
3 55 54 43
3 298 311 290
3 126 137 136
3 197 210 202
3 202 210 214
3 172 170 184
3 20 32 31
3 103 91 92
3 92 91 79
3 336 359 364
3 364 359 337
3 90 104 92
3 101 104 90
3 112 115 101
3 112 125 115
3 77 88 90
3 65 69 57
3 41 45 33
3 6 21 9
3 63 65 53
3 53 51 63
3 134 144 132
3 112 101 99
3 110 112 99
3 97 110 99
3 366 359 357
3 65 57 53
3 7 8 19
3 33 44 32
3 44 33 45
3 77 75 88
3 88 75 86
3 88 97 99
3 97 88 86
3 63 75 65
3 17 15 27
3 136 140 128
3 104 114 103
3 114 104 115
3 115 104 101
3 128 117 126
3 103 102 91
3 152 146 140
3 149 150 160
3 138 149 137
3 150 149 138
3 326 325 303
3 358 357 327
3 125 137 126
3 113 128 123
3 340 367 339
3 87 74 76
3 134 128 140
3 19 18 7
3 18 5 7
3 306 305 295
3 295 305 282
3 339 305 340
3 305 339 326
3 31 19 20
3 324 355 354
3 40 52 50
3 50 38 40
3 42 30 31
3 42 31 43
3 146 134 140
3 28 38 26
3 38 28 40
3 165 173 161
3 348 333 361
3 361 363 348
3 254 262 261
3 76 89 87
3 134 146 144
3 229 217 227
3 217 229 228
3 111 121 109
3 111 123 121
3 282 305 294
3 16 5 18
3 14 5 16
3 5 14 3
3 181 184 170
3 89 76 78
3 289 302 288
3 223 212 224
3 224 212 213
3 187 177 189
3 192 179 191
3 161 148 149
3 165 177 173
3 189 177 178
3 365 338 339
3 301 334 333
3 355 363 354
3 98 100 111
3 113 117 128
3 113 102 114
3 100 102 113
3 111 100 113
3 177 187 173
3 266 267 282
3 161 152 148
3 140 148 152
3 136 148 140
3 184 197 188
3 188 172 184
3 281 282 294
3 335 324 302
3 303 335 302
3 302 324 322
3 201 187 189
3 275 289 288
3 201 213 200
3 365 355 338
3 186 187 200
3 200 187 201
3 237 251 236
3 251 237 252
3 324 335 355
3 211 212 223
3 225 213 216
3 232 220 219
3 169 171 185
3 171 175 185
3 175 186 185
3 198 211 209
3 209 194 198
3 190 188 203
3 224 213 225
3 202 214 203
3 214 215 203
3 167 166 179
3 179 180 167
3 221 223 234
3 236 234 223
3 248 244 230
3 230 244 231
3 363 335 348
3 307 296 329
3 230 247 248
3 181 196 184
3 321 351 353
3 353 337 321
3 231 219 218
3 276 289 275
3 356 326 324
3 324 355 356
3 354 322 324
3 230 234 247
3 199 186 200
3 283 267 280
3 267 283 282
3 225 237 224
3 237 225 238
3 253 238 241
3 252 238 253
3 237 238 252
3 344 360 332
3 332 360 329
3 223 224 236
3 212 211 199
3 199 211 198
3 185 199 198
3 185 186 199
3 354 363 362
3 305 306 340
3 358 325 326
3 326 356 358
3 261 266 276
3 276 260 261
3 253 241 261
3 287 286 271
3 286 287 300
3 253 261 260
3 202 203 188
3 305 326 294
3 281 289 276
3 314 348 335
3 204 216 213
3 356 355 365
3 276 266 281
3 241 242 254
3 242 241 228
3 337 353 364
3 352 364 353
3 364 352 336
3 222 214 210
3 238 225 228
3 228 241 238
3 278 277 291
3 314 310 299
3 368 367 340
3 283 295 282
3 359 366 341
3 221 211 223
3 209 211 221
3 367 368 366
3 340 366 368
3 239 226 235
3 190 203 205
3 184 196 197
3 262 266 261
3 262 267 266
3 204 213 201
3 327 357 328
3 357 336 328
3 359 341 328
3 341 327 328
3 263 264 255
3 328 337 359
3 337 328 336
3 246 232 245
3 181 168 180
3 215 214 226
3 283 293 295
3 229 243 242
3 243 240 254
3 240 256 254
3 340 306 327
3 226 214 222
3 357 359 336
3 343 330 308
3 295 293 327
3 337 336 304
3 341 366 340
3 340 327 341
3 272 257 259
3 235 250 239
3 168 181 170
3 265 262 264
3 256 262 254
3 188 176 172
3 304 321 337
3 240 239 255
3 350 349 352
3 293 279 292
3 277 278 264
3 196 210 197
3 254 242 243
3 261 241 254
3 255 262 256
3 255 264 262
3 309 311 298
3 245 248 257
3 180 179 192
3 239 250 255
3 256 240 255
3 279 264 278
3 227 239 240
3 239 227 226
3 283 280 293
3 265 279 280
3 265 264 279
3 258 269 273
3 269 270 273
3 323 325 327
3 296 310 332
3 310 344 332
3 327 293 323
3 303 325 320
3 291 277 290
3 350 347 349
3 346 349 347
3 318 336 352
3 258 245 257
3 271 274 287
3 316 311 315
3 312 309 313
3 313 291 312
3 292 319 304
3 255 250 249
3 284 286 296
3 286 284 268
3 195 183 194
3 182 194 183
3 226 222 235
3 233 235 222
3 259 257 248
3 233 250 235
3 263 255 258
3 317 321 319
3 246 233 232
3 297 307 308
3 307 342 308
3 342 343 308
3 246 249 250
3 303 314 335
3 314 303 315
3 222 220 233
3 343 346 330
3 273 270 277
3 332 329 296
3 309 346 347
3 309 347 313
3 311 316 312
3 258 255 249
3 210 196 193
3 193 208 210
3 250 233 246
3 290 277 270
3 209 221 218
3 218 221 230
3 220 232 233
3 333 334 361
3 361 334 362
3 248 245 244
3 244 245 231
3 308 330 298
3 290 311 312
3 344 310 311
3 344 311 345
3 311 310 315
3 346 311 309
3 361 362 363
3 218 230 231
3 258 257 269
3 247 234 236
3 236 251 247
3 169 185 182
3 343 345 346
3 329 342 307
3 269 257 268
3 268 257 272
3 209 218 206
3 297 285 284
3 307 297 296
3 296 297 284
3 271 286 272
3 286 268 272
3 315 303 320
3 320 316 315
3 287 301 300
3 198 194 185
3 194 182 185
3 191 183 195
3 183 191 179
3 183 174 182
3 182 174 169
3 234 230 221
3 274 271 259
3 271 272 259
3 260 274 259
3 247 251 248
3 348 332 360
3 296 286 299
3 300 299 286
3 310 314 315
3 344 342 360
3 360 342 329
3 331 360 332
3 348 331 333
3 332 348 331
3 331 348 360
3 348 300 331
3 331 300 333
